<?xml version="1.0" standalone="no"?><!DOCTYPE svg PUBLIC "-//W3C//DTD SVG 1.1//EN" "http://www.w3.org/Graphics/SVG/1.1/DTD/svg11.dtd"><svg t="1758883981681" class="icon" viewBox="0 0 1024 1024" version="1.1" xmlns="http://www.w3.org/2000/svg" p-id="55003" xmlns:xlink="http://www.w3.org/1999/xlink" width="32" height="32"><path d="M943.89607862 248.40742893c-163.29418527-82.1346215-272.89686065-11.99969087-387.75630498 189.44399645l102.32951057 59.81581511c7.32913486 4.26992805 11.77286475 12.16170953 10.79927993 20.48652267-0.32256442 2.69540128-1.15916985 5.33630539-2.51128919 7.65169927-2.56873216 4.56450742-7.00657045 8.04054406-12.54024401 9.3941363l-292.0666135 112.81359056c-11.06292845 2.8264891-22.70323248-3.98860474-25.8567047-15.04269582l-50.290591-313.02888185c-2.30802941-8.10240573 0.51256812-16.72474405 7.07285081-21.66778598 6.62509017-4.98133725 15.55820973-5.08296711 22.90354646-0.77327087l104.25605971 60.90870459c117.05700646-205.20104724 279.97265725-339.56017333 523.66786438-132.74630401v22.77098572z" p-id="55004" fill="#ffffff"></path><path d="M812.16607344 911.82816779h-592.73641769c-72.74343101 0-131.71380331-58.98362838-131.71380331-131.718222v-526.86994221c0-72.74343101 58.97184519-131.71380331 131.71380331-131.71380329h131.71822201v61.74236421h-131.71822201c-36.40559212 0-65.86205679 29.4918142-65.86205678 65.8620568v535.11080024c0 36.39528186 29.46088335 65.86205679 65.86205678 65.86205679h592.74083638c36.34225756 0 65.86205679-29.46088335 65.86205679-65.86205679v-333.41819336h65.86205679v329.29408209c-0.0014729 72.74195811-58.98804705 131.71380331-131.73147806 131.71380331z" p-id="55005" fill="#ffffff"></path></svg>