<?xml version="1.0" standalone="no"?><!DOCTYPE svg PUBLIC "-//W3C//DTD SVG 1.1//EN" "http://www.w3.org/Graphics/SVG/1.1/DTD/svg11.dtd"><svg t="1758944024378" class="icon" viewBox="0 0 1024 1024" version="1.1" xmlns="http://www.w3.org/2000/svg" p-id="21820" xmlns:xlink="http://www.w3.org/1999/xlink" width="32" height="32"><path d="M697.902545 780.706909c-62.836364 44.683636-139.636364 65.210182-216.389818 57.716364-3.537455-0.418909-7.121455-0.977455-10.658909-1.442909a309.294545 309.294545 0 0 1-20.433454-3.072c-4.235636-0.698182-8.331636-2.048-12.381091-2.932364a324.189091 324.189091 0 0 1-19.595637-4.747636l-8.890181-3.490909a217.041455 217.041455 0 0 1-22.109091-8.052364l-4.794182-1.861818c-8.331636-3.863273-16.523636-7.912727-24.715637-12.194909l-1.024-0.744728a324.096 324.096 0 0 1-73.867636-55.901091l-1.070545-1.210181a254.929455 254.929455 0 0 1-23.133091-26.437819 329.355636 329.355636 0 0 1-71.028364-204.660363h85.457455L136.750545 304.593455 0.279273 511.906909h85.271272a434.455273 434.455273 0 0 0 75.450182 244.829091c0.698182 0.977455 0.977455 2.001455 1.582546 2.932364 4.887273 7.261091 10.426182 13.870545 15.732363 20.433454 1.954909 2.56 3.770182 4.933818 5.678546 7.633455a425.658182 425.658182 0 0 0 122.88 102.539636l2.885818 1.489455c10.146909 5.771636 20.433455 10.705455 30.999273 15.313454l7.773091 3.490909c13.405091 5.352727 27.042909 10.333091 40.913454 14.894546 8.098909 2.373818 16.337455 4.561455 24.715637 6.423272 5.725091 1.303273 11.077818 2.746182 16.802909 3.863273a41.565091 41.565091 0 0 0 6.749091 1.489455c8.005818 1.489455 16.011636 2.187636 23.831272 3.211636 2.932364 0.418909 5.725091 0.930909 8.657455 1.210182 14.196364 1.442909 28.346182 2.280727 42.496 2.280727 87.412364 0 172.683636-27.554909 243.758545-78.429091a52.130909 52.130909 0 0 0 12.613818-72.052363 50.455273 50.455273 0 0 0-71.168-12.753455z m240.453819-268.8a432.081455 432.081455 0 0 0-75.077819-244.224l-1.722181-3.397818a525.591273 525.591273 0 0 0-18.804364-24.482909c-0.744727-0.977455-1.536-1.954909-2.094545-2.932364a426.914909 426.914909 0 0 0-159.185455-121.157818c-1.815273-0.651636-3.351273-1.536-5.166545-2.187636a575.301818 575.301818 0 0 0-30.208-11.450182c-3.444364-1.210182-7.168-2.606545-10.891637-3.630546a421.701818 421.701818 0 0 0-26.624-7.028363c-4.980364-1.117091-10.193455-2.420364-15.080727-3.490909-2.56-0.418909-4.747636-1.117091-7.354182-1.675637-6.749091-1.024-13.358545-1.675636-20.200727-2.56-4.747636-0.558545-9.169455-1.303273-13.917091-1.815272a439.342545 439.342545 0 0 0-33.978182-1.722182c-1.954909 0.325818-4.049455-0.093091-6.050909-0.093091h-1.070545A419.141818 419.141818 0 0 0 267.543273 158.254545a52.037818 52.037818 0 0 0 20.526545 93.463273c13.358545 2.420364 27.136-0.698182 38.213818-8.657454a318.370909 318.370909 0 0 1 216.622546-57.623273c2.932364 0 5.725091 0.605091 8.564363 1.070545 7.726545 0.930909 15.36 2.001455 22.807273 3.630546 3.258182 0.512 6.656 1.442909 9.728 2.141091 7.540364 1.675636 14.708364 3.444364 22.016 5.678545 2.280727 0.698182 4.561455 1.489455 6.749091 2.373818a295.005091 295.005091 0 0 1 26.810182 10.146909 325.957818 325.957818 0 0 1 123.112727 93.370182 330.193455 330.193455 0 0 1 73.448727 208.058182h-85.271272l136.471272 207.36 136.471273-207.36H938.356364z m0 0" fill="#707070" p-id="21821"></path></svg>