<?xml version="1.0" standalone="no"?><!DOCTYPE svg PUBLIC "-//W3C//DTD SVG 1.1//EN" "http://www.w3.org/Graphics/SVG/1.1/DTD/svg11.dtd"><svg t="1758865957025" class="icon" viewBox="0 0 1024 1024" version="1.1" xmlns="http://www.w3.org/2000/svg" p-id="38980" xmlns:xlink="http://www.w3.org/1999/xlink" width="32" height="32"><path d="M832 64H192c-70.7 0-128 57.3-128 128v640c0 70.7 57.3 128 128 128h640c70.7 0 128-57.3 128-128V192c0-70.7-57.3-128-128-128zM512 192h192v128H512V192z m256 704H256V576.5h512V896z m128-64c0 35.3-28.7 64-64 64V512.5H192V896c-35.3 0-64-28.7-64-64V192c0-35.3 28.7-64 64-64h64v256h512V128h64c35.3 0 64 28.7 64 64v640z" fill="#ffffff" p-id="38981"></path><path d="M320 640h384v64H320zM320 768h384v64H320z" fill="#ffffff" p-id="38982"></path></svg>