<?xml version="1.0" standalone="no"?><!DOCTYPE svg PUBLIC "-//W3C//DTD SVG 1.1//EN" "http://www.w3.org/Graphics/SVG/1.1/DTD/svg11.dtd"><svg t="1758940248547" class="icon" viewBox="0 0 1024 1024" version="1.1" xmlns="http://www.w3.org/2000/svg" p-id="8281" xmlns:xlink="http://www.w3.org/1999/xlink" width="32" height="32"><path d="M578.673778 283.306667H244.622222L356.408889 177.493333a35.84 35.84 0 0 0 0-52.792889 41.016889 41.016889 0 0 0-55.864889 0L125.212444 290.417778a36.124444 36.124444 0 0 0-11.320888 29.184 35.84 35.84 0 0 0 11.377777 29.127111l175.217778 165.660444a40.561778 40.561778 0 0 0 27.875556 10.979556 40.561778 40.561778 0 0 0 27.989333-10.979556 35.84 35.84 0 0 0 0-52.792889l-109.568-103.537777h326.883556c138.069333 0 254.407111 102.741333 257.536 233.244444 3.185778 134.087111-111.274667 244.167111-252.472889 244.167111h-50.574223l-1.763555-0.113778H187.107556l-1.763556 0.113778a38.741333 38.741333 0 0 0-37.205333 31.232v12.288a38.912 38.912 0 0 0 36.977777 31.232h387.697778c181.76 0 334.051556-135.964444 337.351111-307.655111 3.413333-175.502222-146.659556-319.317333-331.491555-319.317333z" fill="#707070" p-id="8282"></path></svg>