<?xml version="1.0" standalone="no"?><!DOCTYPE svg PUBLIC "-//W3C//DTD SVG 1.1//EN" "http://www.w3.org/Graphics/SVG/1.1/DTD/svg11.dtd"><svg t="1762943281813" class="icon" viewBox="0 0 1024 1024" version="1.1" xmlns="http://www.w3.org/2000/svg" p-id="5693" xmlns:xlink="http://www.w3.org/1999/xlink" width="32" height="32"><path d="M924.8 337.6c-22.6-53.4-54.9-101.3-96-142.4-41.1-41.1-89-73.4-142.4-96C631.1 75.8 572.5 64 512 64S392.9 75.8 337.6 99.2c-53.4 22.6-101.3 54.9-142.4 96-41.1 41.1-73.4 89-96 142.4C75.9 392.9 64 451.5 64 512s11.9 119.1 35.2 174.4c22.6 53.3 54.9 101.3 96 142.4 41.1 41.1 89 73.4 142.4 96C392.9 948.1 451.5 960 512 960s119.1-11.9 174.4-35.2c53.4-22.6 101.3-54.9 142.4-96 41.1-41.1 73.4-89 96-142.4C948.2 631.1 960 572.5 960 512s-11.8-119.1-35.2-174.4zM512 896c-211.7 0-384-172.3-384-384s172.3-384 384-384 384 172.3 384 384-172.3 384-384 384z" fill="#707070" p-id="5694"></path><path d="M763.5 512L549.8 298.2V480H260.5v64h289.3v181.8z" fill="#707070" p-id="5695"></path></svg>