<?xml version="1.0" standalone="no"?><!DOCTYPE svg PUBLIC "-//W3C//DTD SVG 1.1//EN" "http://www.w3.org/Graphics/SVG/1.1/DTD/svg11.dtd"><svg t="1762943174244" class="icon" viewBox="0 0 1024 1024" version="1.1" xmlns="http://www.w3.org/2000/svg" p-id="2066" xmlns:xlink="http://www.w3.org/1999/xlink" width="32" height="32"><path d="M171.5 329.5c-10.9 0-21.8-4.2-30.2-12.5l-64-64c-16.7-16.7-16.7-43.7 0-60.4s43.7-16.7 60.4 0l33.8 33.8 97.9-97.9c16.7-16.7 43.7-16.7 60.4 0 16.7 16.7 16.7 43.7 0 60.4L201.7 317c-8.3 8.4-19.3 12.5-30.2 12.5zM171.5 628.3c-10.9 0-21.8-4.2-30.2-12.5l-64-64c-16.7-16.7-16.7-43.7 0-60.4 16.7-16.7 43.7-16.7 60.4 0l33.8 33.8 97.9-97.9c16.7-16.7 43.7-16.7 60.4 0 16.7 16.7 16.7 43.7 0 60.4L201.7 615.8c-8.3 8.4-19.3 12.5-30.2 12.5zM171.5 927.1c-10.9 0-21.8-4.2-30.2-12.5l-64-64c-16.7-16.7-16.7-43.7 0-60.4s43.7-16.7 60.4 0l33.8 33.8 97.9-97.9c16.7-16.7 43.7-16.7 60.4 0 16.7 16.7 16.7 43.7 0 60.4L201.7 914.6c-8.3 8.4-19.3 12.5-30.2 12.5zM918.5 564.3H449c-23.6 0-42.7-19.1-42.7-42.7s19.1-42.7 42.7-42.7h469.5c23.6 0 42.7 19.1 42.7 42.7s-19.1 42.7-42.7 42.7zM918.5 863.1H449c-23.6 0-42.7-19.1-42.7-42.7s19.1-42.7 42.7-42.7h469.5c23.6 0 42.7 19.1 42.7 42.7s-19.1 42.7-42.7 42.7zM918.5 265.5H449c-23.6 0-42.7-19.1-42.7-42.7s19.1-42.7 42.7-42.7h469.5c23.6 0 42.7 19.1 42.7 42.7s-19.1 42.7-42.7 42.7z" fill="#707070" p-id="2067"></path></svg>