<?xml version="1.0" standalone="no"?><!DOCTYPE svg PUBLIC "-//W3C//DTD SVG 1.1//EN" "http://www.w3.org/Graphics/SVG/1.1/DTD/svg11.dtd"><svg t="1758940293410" class="icon" viewBox="0 0 1024 1024" version="1.1" xmlns="http://www.w3.org/2000/svg" p-id="10574" xmlns:xlink="http://www.w3.org/1999/xlink" width="32" height="32"><path d="M786.3 382.5m-40.9 0a40.9 40.9 0 1 0 81.8 0 40.9 40.9 0 1 0-81.8 0Z" fill="#707070" p-id="10575"></path><path d="M125.4 689.9V649v16.2c0.8 13.8 12.2 24.7 26.2 24.7h-26.2zM266.4 888.9V848v16.2c0.8 13.8 12.2 24.7 26.2 24.7h-26.2zM886.4 689.7h-40.9 16.2c13.8-0.8 24.7-12.2 24.7-26.2v26.2zM745.8 888.4h-40.9 16.2c13.8-0.8 24.7-12.2 24.7-26.2v26.2zM745.5 139.8v40.9-16.2c-0.8-13.8-12.2-24.7-26.2-24.7h26.2zM745.5 619.9v40.9-16.2c-0.8-13.8-12.2-24.7-26.2-24.7h26.2zM265.9 139.8h40.9-16.2c-13.8 0.8-24.7 12.2-24.7 26.2v-26.2zM266 619.7h41-16.2c-13.8 0.9-24.8 12.3-24.8 26.2v-26.2zM125.4 289.1h40.9-16.2c-13.8 0.8-24.7 12.2-24.7 26.2v-26.2zM886.1 289.2v40.9-16.2c-0.8-13.8-12.2-24.7-26.2-24.7h26.2z" fill="#707070" p-id="10576"></path><path d="M967.8 710.1V266c-4.7-33-33.1-58.5-67.4-58.5h-73.1v-89.6c-3.9-32.8-31.1-58.4-64.5-59.8H250.2c-34.8 1-63.1 28.2-65.8 62.6v86.8h-78.8c-33.2 3-59.5 29.7-61.8 63.1v438.7c2.4 31.7 26.4 57.3 57.4 62.1h83.2v133.1c1.2 34.8 28.5 62.9 62.8 65.5h519.2c32.6-3.3 58.4-29.7 60.9-62.6v-136h80.5c31.8-3.6 57-29.2 60-61.3zM266.3 140h479.1v67.5H266.3V140z m479.1 590.4V888H266.3V620h479.1v110.4z m140.5-40.9h-58.6v-92c-3.9-31.9-29.8-56.9-62.1-59.4H248.3c-34.4 2-61.9 29.6-63.9 64v87.4h-58.6V289.4H886v400.1z" fill="#707070" p-id="10577"></path></svg>